<?xml version="1.0" encoding="UTF-8"?>
<svg version="1.1" xmlns="http://www.w3.org/2000/svg" width="320" height="320">
<path d="M0 0 C0.79141388 0.00087616 1.58282776 0.00175232 2.39822388 0.00265503 C34.97450922 0.12126349 65.81527375 9.62073786 92.5625 28.375 C93.58214844 29.07625 94.60179687 29.7775 95.65234375 30.5 C111.95084081 42.3385048 125.94385176 57.28497139 136.5625 74.375 C136.97145508 75.02500977 137.38041016 75.67501953 137.80175781 76.34472656 C153.47835097 101.61767958 161.01778696 130.21686531 160.9375 159.8125 C160.93662384 160.60391388 160.93574768 161.39532776 160.93484497 162.21072388 C160.81623651 194.78700922 151.31676214 225.62777375 132.5625 252.375 C131.86125 253.39464844 131.16 254.41429687 130.4375 255.46484375 C118.5989952 271.76334081 103.65252861 285.75635176 86.5625 296.375 C85.91249023 296.78395508 85.26248047 297.19291016 84.59277344 297.61425781 C59.31982042 313.29085097 30.72063469 320.83028696 1.125 320.75 C0.33358612 320.74912384 -0.45782776 320.74824768 -1.27322388 320.74734497 C-33.84950922 320.62873651 -64.69027375 311.12926214 -91.4375 292.375 C-92.45714844 291.67375 -93.47679688 290.9725 -94.52734375 290.25 C-110.82584081 278.4114952 -124.81885176 263.46502861 -135.4375 246.375 C-135.84645508 245.72499023 -136.25541016 245.07498047 -136.67675781 244.40527344 C-152.35335097 219.13232042 -159.89278696 190.53313469 -159.8125 160.9375 C-159.81162384 160.14608612 -159.81074768 159.35467224 -159.80984497 158.53927612 C-159.69123651 125.96299078 -150.19176214 95.12222625 -131.4375 68.375 C-130.73625 67.35535156 -130.035 66.33570312 -129.3125 65.28515625 C-117.4739952 48.98665919 -102.52752861 34.99364824 -85.4375 24.375 C-84.78749023 23.96604492 -84.13748047 23.55708984 -83.46777344 23.13574219 C-58.19482042 7.45914903 -29.59563469 -0.08028696 0 0 Z " fill="#000000" transform="translate(159.4375,-0.37499999999999994)"/>
<path d="M0 0 C1.13432465 -0.00708481 2.26864929 -0.01416962 3.43734741 -0.02146912 C5.31301643 -0.01775299 5.31301643 -0.01775299 7.22657776 -0.01396179 C9.19488556 -0.02162819 9.19488556 -0.02162819 11.20295715 -0.02944946 C14.80832525 -0.04286871 18.41358871 -0.04341488 22.01897693 -0.04088616 C25.02605032 -0.03981838 28.03310237 -0.04469489 31.04017121 -0.04949158 C38.13308459 -0.06059699 45.22594503 -0.06101845 52.31886292 -0.05497742 C59.64205589 -0.04893626 66.96505681 -0.06124978 74.28821701 -0.08254749 C80.570218 -0.10014709 86.85215777 -0.10616743 93.13418251 -0.10290974 C96.88852377 -0.10109403 100.64272805 -0.10376149 104.39704704 -0.11762428 C108.58253884 -0.13250006 112.76763825 -0.12324693 116.95314026 -0.11161804 C118.20156204 -0.11926178 119.44998383 -0.12690552 120.73623657 -0.13478088 C122.44195328 -0.12425941 122.44195328 -0.12425941 124.18212891 -0.11352539 C125.66738902 -0.113777 125.66738902 -0.113777 127.18265438 -0.1140337 C129.65455627 0.26069641 129.65455627 0.26069641 131.50048923 1.55752277 C133.23160299 4.1123027 132.66934992 6.36077912 132.23658752 9.29975891 C131.36815117 13.71771032 130.31184363 18.08839505 129.24049377 22.46064758 C127.97628889 27.6794718 126.96979086 32.90166475 126.09205627 38.19819641 C125.21206499 43.47518321 124.09580082 48.50433968 122.40065002 53.58100891 C121.77076826 55.84330678 121.32524238 58.00432016 120.93971252 60.31538391 C120.81854065 61.03717834 120.69736877 61.75897278 120.57252502 62.50263977 C120.34003785 63.93859935 120.1219739 65.37698758 119.92018127 66.81758118 C119.46813506 69.60849 119.07397584 71.7671582 117.21681213 73.95251465 C113.17061637 76.01833469 109.19547185 75.66897579 104.71705627 75.63301086 C103.20426086 75.63848686 103.20426086 75.63848686 101.66090393 75.64407349 C98.32528373 75.65218318 94.99014865 75.63856503 91.65455627 75.62397766 C89.33815003 75.62345911 87.02174334 75.62397663 84.70533752 75.62548828 C79.84980198 75.62539854 74.9944324 75.61496476 70.13893127 75.59687805 C63.9110772 75.57419099 57.68346569 75.57364663 51.45558167 75.5803957 C46.67211242 75.58373517 41.8886986 75.57710596 37.10523987 75.56726646 C34.80869334 75.56341382 32.51214064 75.56226651 30.21559143 75.56385231 C27.00762661 75.56422264 23.79997422 75.55161139 20.59205627 75.53535461 C19.16433899 75.53907074 19.16433899 75.53907074 17.70777893 75.54286194 C16.83298889 75.53577713 15.95819885 75.52869232 15.05690002 75.52139282 C14.29885071 75.51933995 13.54080139 75.51728708 12.75978088 75.515172 C10.33066484 75.22154502 8.7285364 74.54643553 6.65455627 73.26069641 C5.70257568 71.30099487 5.70257568 71.30099487 5.07325745 68.88789368 C4.83440826 67.98813812 4.59555908 67.08838257 4.34947205 66.16136169 C3.15937651 61.19375419 2.01891375 56.22193861 0.95533752 51.22554016 C0.71542587 50.10684036 0.47551422 48.98814056 0.22833252 47.83554077 C-0.27383665 45.48546697 -0.77373769 43.13490746 -1.27146912 40.78388977 C-2.03191266 37.20305158 -2.8065578 33.62547138 -3.58177185 30.04780579 C-4.07027536 27.75306965 -4.5579343 25.45815352 -5.04466248 23.16304016 C-5.27586288 22.10342575 -5.50706329 21.04381134 -5.74526978 19.9520874 C-7.00242935 13.93261628 -7.77161158 8.41400284 -7.34544373 2.26069641 C-4.73392494 -0.35082238 -3.6393303 0.00754809 0 0 Z " fill="#000000" transform="translate(104.34544372558594,170.7393035888672)"/>
<path d="M0 0 C17.44463759 -0.80928731 17.44463759 -0.80928731 24.48046875 5.07421875 C29.56398405 10.35676238 35 17.27685793 35 25 C35.66386719 24.96519531 36.32773438 24.93039063 37.01171875 24.89453125 C45.81458146 24.62466247 45.81458146 24.62466247 50 28 C51.60204483 29.60204483 51.16801348 31.28717482 51.18359375 33.5 C51.12526747 38.57528357 50.30592221 43.09826505 49.0625 48 C48.60858197 49.88720696 48.15843265 51.77532224 47.7109375 53.6640625 C47.44893555 54.76911133 47.18693359 55.87416016 46.91699219 57.01269531 C44.87918499 65.77089426 43.06129079 74.58063594 41.1875 83.375 C40.77427726 85.30991876 40.36094915 87.24481502 39.94750977 89.1796875 C38.96353062 93.78614463 37.98126468 98.39296391 37 103 C35.68 103.33 34.36 103.66 33 104 C33 104.66 33 105.32 33 106 C34.65 106 36.3 106 38 106 C38.38218767 107.65614657 38.71395102 109.32457024 39 111 C37.39128502 112.60871498 35.67099101 112.12600829 33.44470215 112.12698364 C32.46031662 112.12980347 31.47593109 112.13262329 30.4617157 112.13552856 C29.37284561 112.13350433 28.28397552 112.1314801 27.16210938 112.12939453 C26.02240189 112.13114685 24.8826944 112.13289917 23.70845032 112.13470459 C19.92020164 112.13912586 16.1319992 112.13618414 12.34375 112.1328125 C9.72440583 112.13348546 7.10506173 112.13445542 4.48571777 112.13571167 C-1.01229356 112.1375332 -6.51029148 112.13512749 -12.00830078 112.13037109 C-18.37316987 112.1249285 -24.73800692 112.12669117 -31.10287523 112.1321975 C-37.21484332 112.13727429 -43.32679716 112.1367471 -49.43876648 112.13381577 C-52.04481511 112.13314622 -54.65086455 112.13397587 -57.25691223 112.13629532 C-60.89200033 112.13882022 -64.52702596 112.13498353 -68.16210938 112.12939453 C-69.79541451 112.13243088 -69.79541451 112.13243088 -71.4617157 112.13552856 C-72.44610123 112.13270874 -73.43048676 112.12988892 -74.44470215 112.12698364 C-75.30527977 112.12660662 -76.16585739 112.12622959 -77.05251312 112.12584114 C-79 112 -79 112 -80 111 C-80.04063832 109.33382885 -80.042721 107.66611905 -80 106 C-77.03 105.505 -77.03 105.505 -74 105 C-74.61875 104.67128906 -75.2375 104.34257812 -75.875 104.00390625 C-78.9169005 101.13534934 -79.26487222 97.89584828 -80 93.9375 C-80.33687796 92.28378046 -80.67412679 90.63013643 -81.01171875 88.9765625 C-81.17720215 88.13770508 -81.34268555 87.29884766 -81.51318359 86.43457031 C-82.22375158 82.8810177 -83.01750087 79.34792268 -83.8125 75.8125 C-83.96614014 75.11342529 -84.11978027 74.41435059 -84.27807617 73.6940918 C-85.26641593 69.20795961 -86.29460318 64.73272465 -87.35273743 60.26249695 C-88.0140066 57.46274259 -88.66636358 54.66094021 -89.31820679 51.85897827 C-89.64550211 50.46252227 -89.97684921 49.06700918 -90.31240845 47.67251587 C-90.78771226 45.69542621 -91.24866696 43.71545036 -91.70703125 41.734375 C-91.9800708 40.58163086 -92.25311035 39.42888672 -92.53442383 38.24121094 C-93.02590746 34.81963954 -92.85436993 32.33858721 -92 29 C-90.125 26.625 -90.125 26.625 -87 25 C-83.30786299 24.6780415 -79.69554059 24.7670062 -76 25 C-75.95875 24.21625 -75.9175 23.4325 -75.875 22.625 C-74.16615609 15.54550381 -69.75736194 8.49355078 -64 4 C-58.98997965 2.30725798 -54.1751501 1.47612984 -48.9375 1.0625 C-47.9155957 0.94165039 -47.9155957 0.94165039 -46.87304688 0.81835938 C-44.04534288 0.5983363 -41.73360818 0.53504297 -39.28930664 2.08422852 C-37.82629392 3.35211222 -36.41083569 4.67430095 -35 6 C-32.10149088 6.68510216 -29.9342771 6.93680019 -27 7 C-25.81148438 7.03867188 -24.62296875 7.07734375 -23.3984375 7.1171875 C-15.57718383 7.25602632 -9.42376059 6.47458686 -2 4 C-0.79117904 1.99983534 -0.79117904 1.99983534 0 0 Z M-90 30 C-90.87996849 36.21176438 -89.53620315 42.39508868 -88.171875 48.43359375 C-87.88645844 49.7488076 -87.88645844 49.7488076 -87.59527588 51.09059143 C-86.98888768 53.87488428 -86.3696946 56.65614204 -85.75 59.4375 C-85.34941197 61.2673926 -84.94966622 63.09746979 -84.55078125 64.92773438 C-83.76381051 68.53159462 -82.96839463 72.13342694 -82.16601562 75.73388672 C-81.38618078 79.23706877 -80.62555538 82.74357902 -79.88085938 86.25439453 C-79.70315002 87.08213882 -79.52544067 87.90988312 -79.34234619 88.76271057 C-79.00863859 90.31855049 -78.67969736 91.87542328 -78.35638428 93.43345642 C-77.62348203 96.82104356 -76.94753847 99.07869229 -75 102 C-72.23152275 102.92282575 -70.57411643 103.12924746 -67.71791077 103.14044189 C-66.84449539 103.14615204 -65.97108002 103.15186218 -65.07119751 103.15774536 C-63.63808731 103.15942215 -63.63808731 103.15942215 -62.17602539 103.16113281 C-61.16764114 103.16609772 -60.1592569 103.17106262 -59.12031555 103.17617798 C-55.77942222 103.1908018 -52.43857635 103.19760129 -49.09765625 103.203125 C-46.77982074 103.2088754 -44.46198525 103.21463314 -42.14414978 103.22039795 C-37.28270241 103.23090796 -32.42127159 103.23675092 -27.55981445 103.24023438 C-21.32406013 103.24572512 -15.08852351 103.26976568 -8.85283756 103.29820633 C-4.06509252 103.31680765 0.72259976 103.32203693 5.51037788 103.32357025 C7.80973058 103.32660197 10.10908224 103.33464788 12.40839958 103.34775543 C15.62131326 103.36476651 18.83369071 103.36294785 22.04663086 103.35644531 C23.00001343 103.3656601 23.953396 103.37487488 24.93566895 103.3843689 C29.95503995 103.38262539 29.95503995 103.38262539 34.56799316 101.62380981 C36.47630484 99.45989889 36.85049487 97.74280968 37.37890625 94.9140625 C37.57621338 93.90762695 37.77352051 92.90119141 37.97680664 91.86425781 C38.17008545 90.79530273 38.36336426 89.72634766 38.5625 88.625 C38.98861596 86.42429164 39.41568977 84.22376851 39.84375 82.0234375 C40.04355469 80.97124023 40.24335938 79.91904297 40.44921875 78.83496094 C41.07401546 75.61903035 41.79356537 72.43439232 42.5625 69.25 C44.07113135 62.88974738 45.321064 56.48179054 46.55493164 50.06347656 C47.48668368 45.28676709 48.63359571 40.66953813 50 36 C50.43092587 32.42993071 50.43092587 32.42993071 48.82249546 29.38276386 C46.3168602 27.48168813 44.6567363 27.6252481 41.52757263 27.6257782 C39.82185593 27.61525673 39.82185593 27.61525673 38.0816803 27.60452271 C36.83325851 27.61216644 35.58483673 27.61981018 34.29858398 27.62768555 C32.32764771 27.62220955 32.32764771 27.62220955 30.31689453 27.61662292 C26.7115835 27.60720939 23.10654371 27.61664255 19.50125384 27.62995505 C15.73187891 27.6412602 11.96251751 27.63716283 8.19313049 27.63520813 C1.86381592 27.63432496 -4.46539159 27.64541111 -10.79467773 27.66381836 C-18.11844868 27.6849955 -25.44206286 27.68849408 -32.76585823 27.6822564 C-39.80475666 27.67656772 -46.84359972 27.68220194 -53.88249016 27.69342995 C-56.88126585 27.6980816 -59.88000776 27.69894736 -62.87878609 27.6968441 C-67.06193427 27.69461593 -71.24486153 27.7090489 -75.42797852 27.7253418 C-76.67842453 27.72286438 -77.92887054 27.72038696 -79.21720886 27.71783447 C-80.35153351 27.72491928 -81.48585815 27.73200409 -82.65455627 27.73930359 C-83.64435266 27.74135646 -84.63414904 27.74340933 -85.65393925 27.74552441 C-88.19054791 27.77272708 -88.19054791 27.77272708 -90 30 Z " fill="#DCEEEC" transform="translate(187,143)"/>
<path d="M0 0 C2.02790984 1.29048808 4.02369593 2.63178949 6 4 C8.69664249 5.09380195 11.42639593 6.03946735 14.17578125 6.9921875 C19.38838448 8.85228658 24.38992436 10.92661624 29 14 C29 14.66 29 15.32 29 16 C28.43410156 16.23074219 27.86820312 16.46148437 27.28515625 16.69921875 C22.76653748 18.58129418 22.76653748 18.58129418 19.8125 22.25 C20.02510811 25.36825232 21.03045078 27.80591253 22.234375 30.66796875 C23.430011 34.3097784 23.56906553 37.96930092 23.7890625 41.77734375 C23.75914935 43.97152842 23.75914935 43.97152842 25 45 C25.8937646 51.69590855 24.45837112 56.33728468 21 62 C20.38922607 63.03592285 20.38922607 63.03592285 19.76611328 64.09277344 C15.01933948 71.93590998 9.72798045 79.47818333 1 83 C-4.65528824 83.86694258 -10.21469605 83.34007793 -15 80 C-21.54859588 74.06330076 -25.87668335 66.73513326 -30 59 C-30.55429688 57.96617188 -31.10859375 56.93234375 -31.6796875 55.8671875 C-33.30282883 52.34237763 -33.36231266 49.8405142 -33 46 C-32.34 45.01 -31.68 44.02 -31 43 C-30.54119382 40.38972377 -30.54119382 40.38972377 -30.3671875 37.45703125 C-30.28339844 36.38388672 -30.19960937 35.31074219 -30.11328125 34.20507812 C-29.99533203 32.52575195 -29.99533203 32.52575195 -29.875 30.8125 C-29.78863281 29.68134766 -29.70226562 28.55019531 -29.61328125 27.38476562 C-29.40104585 24.59033286 -29.19694519 21.79554519 -29 19 C-29.94875 18.690625 -30.8975 18.38125 -31.875 18.0625 C-35 17 -35 17 -37 16 C-36.90625 14.1328125 -36.90625 14.1328125 -36 12 C-33.09375 10.8046875 -33.09375 10.8046875 -29.5 9.875 C-27.31917599 9.30134847 -25.14779287 8.68706277 -23 8 C-22.67 7.34 -22.34 6.68 -22 6 C-20.14453125 5.25390625 -20.14453125 5.25390625 -17.8125 4.5625 C-14.90816716 3.66321211 -12.57324344 2.76955146 -9.875 1.3125 C-6.25820661 -0.33864481 -3.94050979 -0.49256372 0 0 Z " fill="#DDF0EE" transform="translate(170,60)"/>
<path d="M0 0 C0 0.66 0 1.32 0 2 C36.63 2 73.26 2 111 2 C111 1.34 111 0.68 111 0 C121.59145274 -0.55528005 121.59145274 -0.55528005 126 3 C127.60204483 4.60204483 127.16801348 6.28717482 127.18359375 8.5 C127.12526747 13.57528357 126.30592221 18.09826505 125.0625 23 C124.60858197 24.88720696 124.15843265 26.77532224 123.7109375 28.6640625 C123.44893555 29.76911133 123.18693359 30.87416016 122.91699219 32.01269531 C120.87918499 40.77089426 119.06129079 49.58063594 117.1875 58.375 C116.77427726 60.30991876 116.36094915 62.24481502 115.94750977 64.1796875 C114.96353062 68.78614463 113.98126468 73.39296391 113 78 C111.68 78.33 110.36 78.66 109 79 C109 79.66 109 80.32 109 81 C110.65 81 112.3 81 114 81 C114.38218767 82.65614657 114.71395102 84.32457024 115 86 C113.39128502 87.60871498 111.67099101 87.12600829 109.44470215 87.12698364 C108.46031662 87.12980347 107.47593109 87.13262329 106.4617157 87.13552856 C105.37284561 87.13350433 104.28397552 87.1314801 103.16210938 87.12939453 C102.02240189 87.13114685 100.8826944 87.13289917 99.70845032 87.13470459 C95.92020164 87.13912586 92.1319992 87.13618414 88.34375 87.1328125 C85.72440583 87.13348546 83.10506173 87.13445542 80.48571777 87.13571167 C74.98770644 87.1375332 69.48970852 87.13512749 63.99169922 87.13037109 C57.62683013 87.1249285 51.26199308 87.12669117 44.89712477 87.1321975 C38.78515668 87.13727429 32.67320284 87.1367471 26.56123352 87.13381577 C23.95518489 87.13314622 21.34913545 87.13397587 18.74308777 87.13629532 C15.10799967 87.13882022 11.47297404 87.13498353 7.83789062 87.12939453 C6.20458549 87.13243088 6.20458549 87.13243088 4.5382843 87.13552856 C3.55389877 87.13270874 2.56951324 87.12988892 1.55529785 87.12698364 C0.69472023 87.12660662 -0.16585739 87.12622959 -1.05251312 87.12584114 C-3 87 -3 87 -4 86 C-4.04063832 84.33382885 -4.042721 82.66611905 -4 81 C-1.03 80.505 -1.03 80.505 2 80 C1.38125 79.67128906 0.7625 79.34257812 0.125 79.00390625 C-2.9169005 76.13534934 -3.26487222 72.89584828 -4 68.9375 C-4.33687796 67.28378046 -4.67412679 65.63013643 -5.01171875 63.9765625 C-5.17720215 63.13770508 -5.34268555 62.29884766 -5.51318359 61.43457031 C-6.22375158 57.8810177 -7.01750087 54.34792268 -7.8125 50.8125 C-7.96614014 50.11342529 -8.11978027 49.41435059 -8.27807617 48.6940918 C-9.26641593 44.20795961 -10.29460318 39.73272465 -11.35273743 35.26249695 C-12.0140066 32.46274259 -12.66636358 29.66094021 -13.31820679 26.85897827 C-13.64550211 25.46252227 -13.97684921 24.06700918 -14.31240845 22.67251587 C-14.78771226 20.69542621 -15.24866696 18.71545036 -15.70703125 16.734375 C-15.9800708 15.58163086 -16.25311035 14.42888672 -16.53442383 13.24121094 C-17.02590746 9.81963954 -16.85436993 7.33858721 -16 4 C-11.7812596 -1.34373785 -6.21746657 -0.39199439 0 0 Z M-14 5 C-14.87996849 11.21176438 -13.53620315 17.39508868 -12.171875 23.43359375 C-11.88645844 24.7488076 -11.88645844 24.7488076 -11.59527588 26.09059143 C-10.98888768 28.87488428 -10.3696946 31.65614204 -9.75 34.4375 C-9.34941197 36.2673926 -8.94966622 38.09746979 -8.55078125 39.92773438 C-7.76381051 43.53159462 -6.96839463 47.13342694 -6.16601562 50.73388672 C-5.38618078 54.23706877 -4.62555538 57.74357902 -3.88085938 61.25439453 C-3.70315002 62.08213882 -3.52544067 62.90988312 -3.34234619 63.76271057 C-3.00863859 65.31855049 -2.67969736 66.87542328 -2.35638428 68.43345642 C-1.62348203 71.82104356 -0.94753847 74.07869229 1 77 C3.76847725 77.92282575 5.42588357 78.12924746 8.28208923 78.14044189 C9.15550461 78.14615204 10.02891998 78.15186218 10.92880249 78.15774536 C12.36191269 78.15942215 12.36191269 78.15942215 13.82397461 78.16113281 C14.83235886 78.16609772 15.8407431 78.17106262 16.87968445 78.17617798 C20.22057778 78.1908018 23.56142365 78.19760129 26.90234375 78.203125 C29.22017926 78.2088754 31.53801475 78.21463314 33.85585022 78.22039795 C38.71729759 78.23090796 43.57872841 78.23675092 48.44018555 78.24023438 C54.67593987 78.24572512 60.91147649 78.26976568 67.14716244 78.29820633 C71.93490748 78.31680765 76.72259976 78.32203693 81.51037788 78.32357025 C83.80973058 78.32660197 86.10908224 78.33464788 88.40839958 78.34775543 C91.62131326 78.36476651 94.83369071 78.36294785 98.04663086 78.35644531 C99.00001343 78.3656601 99.953396 78.37487488 100.93566895 78.3843689 C105.95503995 78.38262539 105.95503995 78.38262539 110.56799316 76.62380981 C112.47630484 74.45989889 112.85049487 72.74280968 113.37890625 69.9140625 C113.57621338 68.90762695 113.77352051 67.90119141 113.97680664 66.86425781 C114.17008545 65.79530273 114.36336426 64.72634766 114.5625 63.625 C114.98861596 61.42429164 115.41568977 59.22376851 115.84375 57.0234375 C116.04355469 55.97124023 116.24335938 54.91904297 116.44921875 53.83496094 C117.07401546 50.61903035 117.79356537 47.43439232 118.5625 44.25 C120.07113135 37.88974738 121.321064 31.48179054 122.55493164 25.06347656 C123.48668368 20.28676709 124.63359571 15.66953813 126 11 C126.43092587 7.42993071 126.43092587 7.42993071 124.82249546 4.38276386 C122.3168602 2.48168813 120.6567363 2.6252481 117.52757263 2.6257782 C115.82185593 2.61525673 115.82185593 2.61525673 114.0816803 2.60452271 C112.83325851 2.61216644 111.58483673 2.61981018 110.29858398 2.62768555 C108.32764771 2.62220955 108.32764771 2.62220955 106.31689453 2.61662292 C102.7115835 2.60720939 99.10654371 2.61664255 95.50125384 2.62995505 C91.73187891 2.6412602 87.96251751 2.63716283 84.19313049 2.63520813 C77.86381592 2.63432496 71.53460841 2.64541111 65.20532227 2.66381836 C57.88155132 2.6849955 50.55793714 2.68849408 43.23414177 2.6822564 C36.19524334 2.67656772 29.15640028 2.68220194 22.11750984 2.69342995 C19.11873415 2.6980816 16.11999224 2.69894736 13.12121391 2.6968441 C8.93806573 2.69461593 4.75513847 2.7090489 0.57202148 2.7253418 C-0.67842453 2.72286438 -1.92887054 2.72038696 -3.21720886 2.71783447 C-4.35153351 2.72491928 -5.48585815 2.73200409 -6.65455627 2.73930359 C-7.64435266 2.74135646 -8.63414904 2.74340933 -9.65393925 2.74552441 C-12.19054791 2.77272708 -12.19054791 2.77272708 -14 5 Z " fill="#4C4F4F" transform="translate(111,168)"/>
<path d="M0 0 C1.27488281 -0.00257812 2.54976562 -0.00515625 3.86328125 -0.0078125 C4.5298877 -0.00362305 5.19649414 0.00056641 5.88330078 0.00488281 C7.90037654 0.01551171 9.91654708 0.0050255 11.93359375 -0.0078125 C13.21363281 -0.00523438 14.49367187 -0.00265625 15.8125 0 C16.98329102 0.00225586 18.15408203 0.00451172 19.36035156 0.00683594 C23.65946527 0.34280324 27.42908045 0.84652704 30.3515625 4.18359375 C32.910459 9.04215214 34.46108717 12.62839522 33.671875 18.265625 C33.011875 19.255625 32.351875 20.245625 31.671875 21.265625 C31.011875 21.265625 30.351875 21.265625 29.671875 21.265625 C29.424375 22.131875 29.176875 22.998125 28.921875 23.890625 C26.24806546 31.10991075 21.18450916 37.13938928 14.671875 41.265625 C12.1640625 41.59375 12.1640625 41.59375 9.546875 41.515625 C8.67804688 41.50015625 7.80921875 41.4846875 6.9140625 41.46875 C4.671875 41.265625 4.671875 41.265625 2.671875 40.265625 C2.671875 39.605625 2.671875 38.945625 2.671875 38.265625 C2.08664063 38.19859375 1.50140625 38.1315625 0.8984375 38.0625 C-2.2069348 36.9511036 -3.13121538 35.22842434 -4.953125 32.515625 C-5.54351562 31.65453125 -6.13390625 30.7934375 -6.7421875 29.90625 C-8.328125 27.265625 -8.328125 27.265625 -9.40625 24.5546875 C-10.19617384 22.09961315 -10.19617384 22.09961315 -12.453125 20.390625 C-14.328125 18.265625 -14.328125 18.265625 -14.953125 15.078125 C-13.56636721 6.61890248 -8.64268609 0.01671699 0 0 Z " fill="#060606" transform="translate(156.328125,96.734375)"/>
<path d="M0 0 C39.27 0 78.54 0 119 0 C118.67 1.65 118.34 3.3 118 5 C79.39 5 40.78 5 1 5 C0.67 3.35 0.34 1.7 0 0 Z " fill="#B8C7C6" transform="translate(107,250)"/>
<path d="M0 0 C0.495 0.99 0.495 0.99 1 2 C0.67 2.66 0.34 3.32 0 4 C-0.66 4 -1.32 4 -2 4 C-2 4.66 -2 5.32 -2 6 C-0.35 6 1.3 6 3 6 C3 6.33 3 6.66 3 7 C-35.94 7 -74.88 7 -115 7 C-115 6.67 -115 6.34 -115 6 C-113.02 5.67 -111.04 5.34 -109 5 C-109.33 4.34 -109.66 3.68 -110 3 C-109.17697403 2.99503478 -109.17697403 2.99503478 -108.33732128 2.98996925 C-94.99220083 2.90878088 -81.64719575 2.8165764 -68.3022337 2.71247292 C-61.84872792 2.66246368 -55.39523889 2.61613404 -48.94165039 2.578125 C-42.71705022 2.5413307 -36.49258858 2.49498672 -30.26810646 2.44193649 C-27.88981359 2.42336137 -25.51149099 2.40826503 -23.13315392 2.39665604 C-19.80957131 2.37984699 -16.48630814 2.35082472 -13.1628418 2.31884766 C-11.67822701 2.31560738 -11.67822701 2.31560738 -10.16362 2.31230164 C-9.25918152 2.30113815 -8.35474304 2.28997467 -7.42289734 2.2784729 C-6.63660792 2.27294214 -5.85031851 2.26741138 -5.04020214 2.26171303 C-2.68920221 2.11370332 -2.68920221 2.11370332 0 0 Z " fill="#858D8D" transform="translate(222,243)"/>
<path d="M0 0 C38.61 0 77.22 0 117 0 C117.495 1.485 117.495 1.485 118 3 C89.51530462 3.14180173 61.04361612 2.92123969 32.5625 2.5 C31.75372784 2.48804218 30.94495567 2.47608437 30.11167526 2.46376419 C20.07436027 2.31483972 10.03714219 2.16016066 0 2 C0 1.34 0 0.68 0 0 Z " fill="#E0F5F3" transform="translate(108,251)"/>
<path d="M0 0 C0.33 0 0.66 0 1 0 C1 2.64 1 5.28 1 8 C1.66 8 2.32 8 3 8 C-0.65187481 17.679241 -5.58555639 25.86409443 -14 32 C-14.804375 32.639375 -15.60875 33.27875 -16.4375 33.9375 C-21.52167987 36.04557458 -26.33637744 35.43779541 -31.5625 34.0625 C-36.4322394 31.73051212 -39.67802928 27.1157923 -43 23 C-41.68 21.68 -40.36 20.36 -39 19 C-38.67386719 19.49371094 -38.34773437 19.98742187 -38.01171875 20.49609375 C-37.57472656 21.13675781 -37.13773438 21.77742188 -36.6875 22.4375 C-36.25824219 23.07558594 -35.82898438 23.71367187 -35.38671875 24.37109375 C-33.9965948 26.2885684 -33.9965948 26.2885684 -31 27 C-31 27.66 -31 28.32 -31 29 C-23.13117694 29.51794554 -23.13117694 29.51794554 -15.625 27.5625 C-11.16078186 23.20457277 -8.091742 18.18348401 -5.3125 12.625 C-4 10 -4 10 -2.375 8.5625 C-0.16980501 6.0565966 -0.30440346 3.22667673 0 0 Z " fill="#CEDCDB" transform="translate(190,108)"/>
<path d="M0 0 C3.465 1.485 3.465 1.485 7 3 C7.26008065 24.93346774 7.26008065 24.93346774 4.4375 29.5625 C3.963125 30.036875 3.48875 30.51125 3 31 C2.01 30.67 1.02 30.34 0 30 C0 20.1 0 10.2 0 0 Z " fill="#ADB9B9" transform="translate(134,76)"/>
<path d="M0 0 C0 0.66 0 1.32 0 2 C-1.03060547 2.07347656 -1.03060547 2.07347656 -2.08203125 2.1484375 C-3.43361328 2.26058594 -3.43361328 2.26058594 -4.8125 2.375 C-5.70582031 2.44460937 -6.59914063 2.51421875 -7.51953125 2.5859375 C-10.24398499 2.86645036 -10.24398499 2.86645036 -13 5 C-14.17796803 11.04224341 -12.50423297 17.53658846 -11.171875 23.43359375 C-10.98159729 24.31040298 -10.79131958 25.18721222 -10.59527588 26.09059143 C-9.98888768 28.87488428 -9.3696946 31.65614204 -8.75 34.4375 C-8.34941197 36.2673926 -7.94966622 38.09746979 -7.55078125 39.92773438 C-6.57156246 44.41054187 -5.57918141 48.89031206 -4.58276367 53.36932373 C-3.99818093 56.00821156 -3.42098553 58.6486212 -2.84570312 61.28955078 C-2.66348206 62.12180679 -2.48126099 62.95406281 -2.29351807 63.8115387 C-1.94988776 65.38104795 -1.60811561 66.95096556 -1.26849365 68.52134705 C-0.15802212 74.23852969 -0.15802212 74.23852969 4 78 C2.125 78.625 2.125 78.625 0 79 C-2.85191975 76.14808025 -3.08900166 72.82710608 -3.875 69 C-4.23031194 67.33720607 -4.58578467 65.67444649 -4.94140625 64.01171875 C-5.11945801 63.16657715 -5.29750977 62.32143555 -5.48095703 61.45068359 C-6.2331901 57.89898298 -7.02241095 54.35592967 -7.8125 50.8125 C-7.965979 50.11350586 -8.11945801 49.41451172 -8.27758789 48.69433594 C-9.26676498 44.20827637 -10.2945772 39.73283441 -11.35273743 35.26249695 C-12.0140066 32.46274259 -12.66636358 29.66094021 -13.31820679 26.85897827 C-13.64550211 25.46252227 -13.97684921 24.06700918 -14.31240845 22.67251587 C-14.78771226 20.69542621 -15.24866696 18.71545036 -15.70703125 16.734375 C-15.9800708 15.58163086 -16.25311035 14.42888672 -16.53442383 13.24121094 C-17.02590746 9.81963954 -16.85436993 7.33858721 -16 4 C-11.7812596 -1.34373785 -6.21746657 -0.39199439 0 0 Z " fill="#6C6E6F" transform="translate(111,168)"/>
<path d="M0 0 C4.875 4.75 4.875 4.75 6 7 C6.99 7.33 7.98 7.66 9 8 C9 8.66 9 9.32 9 10 C12.3 10.33 15.6 10.66 19 11 C17.68 12.32 16.36 13.64 15 15 C16.98 15 18.96 15 21 15 C21 15.33 21 15.66 21 16 C15.25414345 16.35178714 9.8697138 16.47530236 5 13 C2.13972864 10.1498356 -0.46493731 7.1408439 -3 4 C-2.01 2.68 -1.02 1.36 0 0 Z " fill="#BECDCB" transform="translate(150,127)"/>
<path d="M0 0 C1.32 0 2.64 0 4 0 C4.20777027 17.52195946 4.20777027 17.52195946 3 24 C2.01 24.66 1.02 25.32 0 26 C0 17.42 0 8.84 0 0 Z " fill="#121313" transform="translate(137,79)"/>
<path d="M0 0 C0 0.66 0 1.32 0 2 C-1.03060547 2.07347656 -1.03060547 2.07347656 -2.08203125 2.1484375 C-3.43361328 2.26058594 -3.43361328 2.26058594 -4.8125 2.375 C-5.70582031 2.44460937 -6.59914063 2.51421875 -7.51953125 2.5859375 C-10.24398499 2.86645036 -10.24398499 2.86645036 -13 5 C-13.57858039 12.17439678 -12.3340761 18.96036631 -11 26 C-11.66 26.33 -12.32 26.66 -13 27 C-13.70193456 24.29468997 -14.38676457 21.58686232 -15.0625 18.875 C-15.26166016 18.11445313 -15.46082031 17.35390625 -15.66601562 16.5703125 C-16.77332918 12.06335207 -17.30359149 8.57981348 -16 4 C-11.7812596 -1.34373785 -6.21746657 -0.39199439 0 0 Z " fill="#4A4B4B" transform="translate(111,168)"/>
<path d="M0 0 C1.67542976 0.28604898 3.34385343 0.61781233 5 1 C5.625 3.375 5.625 3.375 6 6 C5.34 6.66 4.68 7.32 4 8 C0.46428571 7.46428571 0.46428571 7.46428571 -1 6 C-1.125 3.5 -1.125 3.5 -1 1 C-0.67 0.67 -0.34 0.34 0 0 Z " fill="#BECCCB" transform="translate(164,205)"/>
<path d="M0 0 C2.0643185 3.5567046 2.76266531 7.11326372 3.5625 11.125 C4.55713693 17.64538797 4.55713693 17.64538797 9 22 C7.125 22.625 7.125 22.625 5 23 C1.93280169 19.93280169 1.70814261 16.21737637 0.8125 12.0625 C0.62236328 11.23814453 0.43222656 10.41378906 0.23632812 9.56445312 C0.06166016 8.77103516 -0.11300781 7.97761719 -0.29296875 7.16015625 C-0.4530542 6.43449463 -0.61313965 5.70883301 -0.77807617 4.96118164 C-1 3 -1 3 0 0 Z " fill="#616363" transform="translate(106,224)"/>
<path d="M0 0 C0 0.66 0 1.32 0 2 C-0.67546875 2.03738281 -1.3509375 2.07476562 -2.046875 2.11328125 C-2.93890625 2.17902344 -3.8309375 2.24476563 -4.75 2.3125 C-5.63171875 2.37050781 -6.5134375 2.42851562 -7.421875 2.48828125 C-10.38626734 3.07666821 -11.78509678 3.97288205 -14 6 C-14.66 6.99 -15.32 7.98 -16 9 C-16.3125 6.75 -16.3125 6.75 -16 4 C-11.80364529 -1.35396981 -6.19337105 -0.39047523 0 0 Z " fill="#636869" transform="translate(111,168)"/>
<path d="M0 0 C0.66 0.33 1.32 0.66 2 1 C1.34 5.29 0.68 9.58 0 14 C-2.12969485 10.80545772 -2.2390304 10.50853075 -1.6875 7 C-1.58824219 6.319375 -1.48898438 5.63875 -1.38671875 4.9375 C-1 3 -1 3 0 0 Z " fill="#4C4D4D" transform="translate(235,183)"/>
<path d="M0 0 C0.66 0.33 1.32 0.66 2 1 C1.04882866 2.1725131 0.08882991 3.33787015 -0.875 4.5 C-1.40867187 5.1496875 -1.94234375 5.799375 -2.4921875 6.46875 C-2.98976563 6.9740625 -3.48734375 7.479375 -4 8 C-4.66 8 -5.32 8 -6 8 C-4.55746343 4.63408134 -2.66735273 2.48952921 0 0 Z " fill="#BAC4C3" transform="translate(123,147)"/>
<path d="M0 0 C0.99 0.33 1.98 0.66 3 1 C2.38125 1.598125 1.7625 2.19625 1.125 2.8125 C-1.13676954 5.00811144 -1.13676954 5.00811144 -3 8 C-3.36923077 3.44615385 -3.36923077 3.44615385 -1.5 1.1875 C-1.005 0.795625 -0.51 0.40375 0 0 Z " fill="#6C6F70" transform="translate(98,169)"/>
</svg>
