<?xml version="1.0" encoding="UTF-8"?>
<svg version="1.1" xmlns="http://www.w3.org/2000/svg" width="256" height="323">
<path d="M0 0 C0.28875 0.804375 0.5775 1.60875 0.875 2.4375 C1.74792744 5.13518011 1.74792744 5.13518011 4.0625 6.125 C5.5165625 6.558125 5.5165625 6.558125 7 7 C7.60585937 7.23460937 8.21171875 7.46921875 8.8359375 7.7109375 C23.88590611 13.36166921 39.88787293 13.04630952 54.83203125 7.21875 C57.12226576 5.93126681 57.98851483 4.93538927 59.375 2.75 C62 0 62 0 64.7265625 -0.453125 C78.47138692 -0.64994826 93.65399633 0.94663419 104.0546875 10.7578125 C110.73903919 18.46226606 118 29.49583007 118 40 C119.16917969 39.96519531 120.33835938 39.93039063 121.54296875 39.89453125 C123.09113141 39.86638284 124.63930968 39.83908381 126.1875 39.8125 C127.34088867 39.77479492 127.34088867 39.77479492 128.51757812 39.73632812 C133.18961576 39.67617313 136.21467356 39.95031247 140 43 C144.42579284 49.5673055 142.36251893 55.57703701 141 63 C140.12882011 67.42528622 139.1793036 71.83030045 138.20703125 76.234375 C137.94004425 77.46000656 137.67305725 78.68563812 137.39797974 79.94841003 C136.68617549 83.21311541 135.97106162 86.4770544 135.25388718 89.74058151 C134.06919226 95.13391416 132.88994949 100.52844381 131.71113014 105.92306328 C131.41963638 107.25682983 131.12795864 108.59055618 130.83609581 109.92424202 C129.07536964 117.97353389 127.3553658 126.02844609 125.7265625 134.10546875 C125.56659286 134.89174652 125.40662323 135.67802429 125.24180603 136.48812866 C124.53842982 139.94654092 123.84714233 143.406313 123.1809082 146.87207031 C122.8264563 148.61955566 122.8264563 148.61955566 122.46484375 150.40234375 C122.275271 151.37679443 122.08569824 152.35124512 121.89038086 153.35522461 C120.61291348 157.14979662 118.65619962 159.91515081 115.28176689 162.12548256 C112.2171006 163.30005658 109.61552404 163.25824202 106.33328247 163.26742554 C105.66439558 163.27195665 104.99550869 163.27648776 104.3063525 163.28115618 C102.06630658 163.29381065 99.82650347 163.29217917 97.58642578 163.29052734 C95.9798247 163.29651194 94.3732265 163.30331733 92.76663208 163.31088257 C88.40295352 163.32855662 84.03935338 163.33323853 79.67564249 163.33451414 C76.03250769 163.33641336 72.38939115 163.34377114 68.74626338 163.35085833 C60.15065706 163.36714517 51.55509264 163.37202701 42.95947266 163.37060547 C34.09348181 163.36940388 25.22773434 163.39050835 16.36180508 163.4220928 C8.74894316 163.44824653 1.13616078 163.45897315 -6.47674572 163.45769465 C-11.02316728 163.45718476 -15.56937256 163.46288301 -20.11574936 163.48405075 C-24.39219914 163.50341803 -28.66822599 163.50356811 -32.9446907 163.48901749 C-34.51281095 163.48692641 -36.08095756 163.49164814 -37.64903259 163.5037384 C-39.79295625 163.51919592 -41.93542249 163.50988166 -44.07931519 163.49447632 C-45.27798155 163.49556585 -46.47664791 163.49665539 -47.7116375 163.49777794 C-51.71834975 162.89125936 -53.87181184 161.53783161 -57 159 C-59.58720948 154.22048982 -60.79524778 149.24643626 -61.875 143.95703125 C-62.1237085 142.78456345 -62.1237085 142.78456345 -62.37744141 141.58840942 C-62.92523885 138.99784724 -63.46271258 136.40526062 -64 133.8125 C-64.38477033 131.98041427 -64.77020219 130.14846736 -65.15625 128.31665039 C-65.99017136 124.35596779 -66.82017981 120.39448771 -67.6484375 116.43261719 C-69.07808056 109.6094404 -70.538544 102.79298312 -72 95.9765625 C-72.75359574 92.45187935 -73.50659535 88.92706954 -74.25927734 85.40219116 C-74.75058982 83.10410295 -75.24309069 80.80626846 -75.73681641 78.50869751 C-76.43293903 75.26579847 -77.12336526 72.02173393 -77.8125 68.77734375 C-78.01939453 67.81958038 -78.22628906 66.86181702 -78.43945312 65.87503052 C-81.60070807 50.90813152 -81.60070807 50.90813152 -79.9375 45.625 C-76.89195342 41.49877561 -73.43311381 40.21903486 -68.421875 39.453125 C-67.21015625 39.38609375 -65.9984375 39.3190625 -64.75 39.25 C-63.52796875 39.17265625 -62.3059375 39.0953125 -61.046875 39.015625 C-58 39 -58 39 -56 40 C-55.814375 38.80375 -55.62875 37.6075 -55.4375 36.375 C-52.85885867 24.94242236 -46.41711652 13.28306896 -36.7734375 6.4140625 C-29.10127662 1.85294968 -20.92867248 0.69275859 -12.1875 -0.1875 C-11.34251953 -0.28224609 -10.49753906 -0.37699219 -9.62695312 -0.47460938 C-8.40975586 -0.60125977 -8.40975586 -0.60125977 -7.16796875 -0.73046875 C-6.43860107 -0.80676514 -5.7092334 -0.88306152 -4.95776367 -0.96166992 C-3 -1 -3 -1 0 0 Z M-76 46 C-78.10282755 49.54131723 -78.18533304 51.98057177 -77.41015625 55.95703125 C-77.20793457 57.01486816 -77.00571289 58.07270508 -76.79736328 59.16259766 C-76.5342334 60.42894043 -76.27110352 61.6952832 -76 63 C-75.84698425 63.74811951 -75.69396851 64.49623901 -75.53631592 65.26702881 C-74.20874361 71.74885741 -72.82694979 78.21869829 -71.4375 84.6875 C-70.9934018 86.76033392 -70.5493101 88.83316922 -70.10522461 90.90600586 C-69.19306662 95.1594817 -68.27840593 99.41241089 -67.36230469 103.66503906 C-66.25666781 108.79982836 -65.16060734 113.93660167 -64.06755066 119.07408142 C-63.2634335 122.84514422 -62.4521374 126.61463472 -61.63870239 130.38369751 C-61.25712648 132.15766882 -60.87824348 133.93222169 -60.50216675 135.70736694 C-59.97917992 138.17252512 -59.44595899 140.63525661 -58.91015625 143.09765625 C-58.68569321 144.17265884 -58.68569321 144.17265884 -58.45669556 145.26937866 C-57.50760859 149.56728809 -56.47281059 153.33644163 -54 157 C-47.20957227 161.17209747 -39.72841284 160.4227625 -31.99609375 160.38818359 C-30.46948878 160.39225261 -28.94288676 160.39759634 -27.41629028 160.40411377 C-23.28406128 160.41775402 -19.15205777 160.41250239 -15.01982498 160.40297651 C-10.68825946 160.39536282 -6.35671279 160.40243027 -2.02514648 160.40713501 C5.24791925 160.41258759 12.52089348 160.40541403 19.79394531 160.39111328 C28.19359323 160.37478771 36.59302266 160.38007657 44.99266529 160.3965925 C52.21410646 160.41022157 59.43548199 160.41212008 66.65693188 160.40427649 C70.96575182 160.39960778 75.27446918 160.39895301 79.58328247 160.40888596 C83.63485021 160.41757406 87.68613719 160.41150024 91.73767471 160.39420319 C93.22151347 160.39024816 94.70537598 160.3913555 96.18920517 160.39799118 C106.62871551 160.77016113 106.62871551 160.77016113 116 157 C118.96984518 151.88185234 120.03772463 146.23627853 121.28417969 140.48803711 C121.49104904 139.56030991 121.6979184 138.6325827 121.91105652 137.67674255 C122.58857286 134.62849402 123.25573049 131.57809606 123.921875 128.52734375 C124.39051566 126.39931404 124.85945327 124.27134969 125.32867432 122.14344788 C126.30839755 117.69196719 127.28265313 113.23933116 128.25341797 108.78588867 C129.49763579 103.08134805 130.75828063 97.38057938 132.02338791 91.68064022 C132.99529717 87.29083366 133.95703762 82.89884585 134.91587067 78.50616646 C135.37649923 76.40308131 135.8406213 74.30075815 136.30831146 72.1992321 C136.96057062 69.26253489 137.59871985 66.32310775 138.23339844 63.38256836 C138.42864609 62.51746643 138.62389374 61.6523645 138.82505798 60.76104736 C139.78977789 56.21416167 140.30233075 52.57877795 139 48 C136.72158051 45.18994929 135.45303547 44.15101182 132 43 C129.32837908 42.89988141 126.68273666 42.85656371 124.01091003 42.85955811 C123.18770258 42.85658698 122.36449512 42.85361586 121.51634198 42.8505547 C118.74810776 42.84185851 115.97991674 42.84035868 113.21166992 42.83886719 C111.2308391 42.83423968 109.25000918 42.82921511 107.2691803 42.82382202 C101.88069752 42.81068983 96.4922272 42.8042515 91.10373092 42.79981136 C87.73856357 42.79688205 84.37339965 42.79277751 81.00823402 42.78830719 C70.48328612 42.7746303 59.95834602 42.7649645 49.43338984 42.7611053 C37.27661193 42.75662349 25.11994639 42.73907067 12.96320266 42.7101047 C3.57119172 42.6885017 -5.82078757 42.67840176 -15.21282309 42.67706418 C-20.82450565 42.67601519 -26.43608259 42.67008736 -32.04773903 42.65224457 C-37.32626311 42.63578775 -42.60460191 42.6335968 -47.88314247 42.64238358 C-49.82053625 42.64315522 -51.75793989 42.63879448 -53.69530869 42.62892532 C-56.34041362 42.61624111 -58.9848589 42.62206338 -61.62995911 42.63250732 C-62.77963133 42.62042272 -62.77963133 42.62042272 -63.95252925 42.60809398 C-68.70023006 42.65192859 -71.98119424 43.45308805 -76 46 Z " fill="#E4F7F5" transform="translate(98,140)"/>
<path d="M0 0 C1.3940078 0.58862068 1.3940078 0.58862068 2.81617737 1.18913269 C5.77894689 2.4429164 8.73514148 3.7114345 11.69140625 4.98046875 C13.67601701 5.82324423 15.66103919 6.66505156 17.64648438 7.50585938 C22.8542373 9.71431938 28.05545805 11.93770924 33.25390625 14.16796875 C34.6263642 14.75614846 35.99883924 15.34428832 37.37133789 15.93237305 C38.32258545 16.34011963 39.27383301 16.74786621 40.25390625 17.16796875 C40.15625 19.4296875 40.15625 19.4296875 39.25390625 22.16796875 C36.3828125 24.1875 36.3828125 24.1875 32.81640625 25.98046875 C32.21763672 26.29177734 31.61886719 26.60308594 31.00195312 26.92382812 C26.59751889 29.16796875 26.59751889 29.16796875 24.25390625 29.16796875 C24.51457601 30.83625522 24.78808002 32.50253698 25.06640625 34.16796875 C25.21722656 35.09609375 25.36804688 36.02421875 25.5234375 36.98046875 C26.10660674 39.52520726 26.79359662 41.61905828 27.76171875 44.015625 C29.38517142 48.19106789 29.92709681 52.1645135 30.31640625 56.60546875 C30.76548808 61.20174947 31.23291019 65.5409026 32.56640625 69.98046875 C34.10034254 76.32482925 32.04501768 82.96918031 28.921875 88.546875 C27.92583573 90.01596723 26.90018259 91.46536558 25.84765625 92.89453125 C24.11272658 95.3693574 22.80146562 97.90801767 21.44140625 100.60546875 C15.9572019 110.85604966 6.74779395 121.02907373 -4.23046875 125.47265625 C-12.88309796 127.86422147 -20.97104115 126.38494643 -28.74609375 122.16796875 C-38.85914461 116.19716381 -44.82497327 106.69664997 -49.95703125 96.43383789 C-51.87795592 92.61569744 -54.07455661 89.48512737 -56.74609375 86.16796875 C-59.02113406 81.28681883 -60.16215438 76.57675698 -59.74609375 71.16796875 C-60.73609375 70.83796875 -61.72609375 70.50796875 -62.74609375 70.16796875 C-64.9838819 66.14589769 -64.98443664 62.51473008 -64.93359375 57.98046875 C-64.92501343 56.95119263 -64.92501343 56.95119263 -64.91625977 55.90112305 C-64.83127058 49.65617408 -64.47574474 43.4242963 -64.0144043 37.1965332 C-63.75137732 33.32789929 -63.74490076 29.92800466 -64.74609375 26.16796875 C-64.08609375 26.16796875 -63.42609375 26.16796875 -62.74609375 26.16796875 C-63.09396083 24.1926013 -63.09396083 24.1926013 -63.74609375 22.16796875 C-64.40609375 21.83796875 -65.06609375 21.50796875 -65.74609375 21.16796875 C-65.50067139 18.80473328 -65.50067139 18.80473328 -64.74609375 16.16796875 C-62.98907471 14.89680481 -62.98907471 14.89680481 -60.67285156 13.97973633 C-59.80815247 13.62619583 -58.94345337 13.27265533 -58.05255127 12.90840149 C-57.11095154 12.546754 -56.16935181 12.18510651 -55.19921875 11.8125 C-54.23586609 11.42478928 -53.27251343 11.03707855 -52.27996826 10.63761902 C-49.19239644 9.39994608 -46.09477566 8.19002089 -42.99609375 6.98046875 C-40.92245727 6.15480029 -38.84953041 5.32734724 -36.77734375 4.49804688 C-32.19497516 2.6682042 -27.60618161 0.85571286 -23.01104736 -0.94181824 C-21.37641811 -1.58428978 -19.74961992 -2.24681099 -18.12812805 -2.92175293 C-11.47817309 -5.46298831 -6.12651087 -2.65254729 0 0 Z M-57.74609375 26.16796875 C-61.1533886 37.03886184 -59.14890876 53.30482188 -56.74609375 64.16796875 C-56.41609375 64.16796875 -56.08609375 64.16796875 -55.74609375 64.16796875 C-53.33496566 52.02621656 -52.3511957 40.54144089 -52.74609375 28.16796875 C-55.22109375 27.17796875 -55.22109375 27.17796875 -57.74609375 26.16796875 Z M-43.49609375 61.54296875 C-44.84052854 64.22190693 -44.84052854 64.22190693 -45.80859375 67.41796875 C-46.74609375 70.16796875 -46.74609375 70.16796875 -48.74609375 71.16796875 C-49.9954926 75.63010751 -50.05286341 79.30901369 -48.49609375 83.66796875 C-46.92635903 86.43890639 -46.92635903 86.43890639 -43.74609375 87.16796875 C-42.3183772 89.73609955 -41.0380865 92.25758063 -39.80859375 94.91796875 C-35.24946314 104.68627941 -29.68452739 112.04259529 -19.37109375 116.16796875 C-13.26306462 117.92061628 -7.99044747 116.7503213 -2.359375 114.00390625 C7.45125409 108.04090928 12.84707778 98.51513744 17.25390625 88.16796875 C17.25390625 87.50796875 17.25390625 86.84796875 17.25390625 86.16796875 C18.18203125 86.07515625 18.18203125 86.07515625 19.12890625 85.98046875 C21.43282621 85.3486834 21.43282621 85.3486834 22.50390625 83.10546875 C23.51281334 79.15391599 23.64366936 76.26048142 23.25390625 72.16796875 C21.48368621 70.14698449 21.48368621 70.14698449 19.25390625 68.16796875 C18.78052747 66.67264873 18.32398806 65.171954 17.87890625 63.66796875 C16.46066685 60.24385291 15.58273068 59.33048633 12.203125 57.66015625 C5.29479513 55.53794106 -0.68453515 54.56696761 -7.74609375 56.16796875 C-13.52178197 57.36669649 -18.02600816 56.70082801 -23.74609375 55.6640625 C-31.99226885 54.30043719 -38.08665589 54.20158879 -43.49609375 61.54296875 Z " fill="#E4F7F5" transform="translate(141.74609375,14.83203125)"/>
<path d="M0 0 C0.74279868 -0.00297112 1.48559736 -0.00594224 2.2509051 -0.0090034 C4.75285769 -0.01771113 7.25476256 -0.01920038 9.75672913 -0.02069092 C11.54523827 -0.02531756 13.33374642 -0.03034201 15.12225342 -0.03573608 C19.98994939 -0.04887537 24.85763157 -0.05530781 29.72534251 -0.05974674 C32.7636698 -0.0626745 35.8019933 -0.0667787 38.84031868 -0.07125092 C48.33850492 -0.08492876 57.8366825 -0.09459448 67.33487791 -0.09845281 C78.31445051 -0.10293693 89.29389883 -0.12050005 100.27343363 -0.1494534 C108.75073566 -0.17103567 117.22800263 -0.18115521 125.70533186 -0.18249393 C130.77311541 -0.18354427 135.84078218 -0.18950088 140.90853691 -0.20731354 C145.67323884 -0.22373501 150.43773546 -0.22597872 155.20245552 -0.21717453 C156.95405246 -0.21640101 158.70566017 -0.22078803 160.45722961 -0.23063278 C162.84290946 -0.24325836 165.22785172 -0.23752743 167.61352539 -0.22705078 C168.31157522 -0.23510719 169.00962504 -0.24316359 169.72882789 -0.25146413 C172.57719676 -0.22207664 174.43816407 -0.16552331 176.80036259 1.50716019 C178.34186571 3.86039679 178.28308782 5.38821989 177.87025452 8.14044189 C176.79994202 9.77288246 176.79994202 9.77288246 174.87025452 11.14044189 C172.37082648 11.43502691 170.12011378 11.54538228 167.62025452 11.52139282 C166.50477486 11.52841278 166.50477486 11.52841278 165.36676025 11.53557456 C162.86774513 11.54756807 160.36927399 11.53805059 157.87025452 11.52862549 C156.08159565 11.53268926 154.2929393 11.53803005 152.50428772 11.54455566 C147.64072034 11.55825818 142.77734339 11.55291853 137.91377258 11.54341841 C132.83025082 11.53583699 127.74674565 11.54286319 122.66322327 11.5475769 C114.12543299 11.55303889 105.58772049 11.54583123 97.04994202 11.53155518 C87.1711402 11.51522782 77.29252412 11.52051602 67.41372681 11.53703439 C58.94063728 11.55063664 50.46760375 11.5525751 41.99450684 11.54471838 C36.9301092 11.54003492 31.86579893 11.53943546 26.80140686 11.54932785 C22.04076926 11.55797691 17.28037173 11.55201343 12.51976013 11.53464508 C10.76978454 11.53066919 9.01978883 11.53183304 7.26982117 11.53843307 C4.88635703 11.54659538 2.50366881 11.53639217 0.12025452 11.52139282 C-0.57711319 11.52808499 -1.2744809 11.53477715 -1.99298096 11.54167211 C-4.80513037 11.50719462 -6.71538111 11.41401729 -9.09458923 9.84319496 C-10.87757503 6.91031934 -9.89675809 4.32649426 -9.12974548 1.14044189 C-6.18979063 -0.32953553 -3.22294804 -0.00398787 0 0 Z " fill="#E7F9F8" transform="translate(45.12974548339844,303.85955810546875)"/>
<path d="M0 0 C1.14270797 0.00166865 1.14270797 0.00166865 2.30850095 0.003371 C4.87490947 0.00843148 7.44123109 0.02078835 10.00761414 0.03314209 C11.84213658 0.03837249 13.6766602 0.04320001 15.51118469 0.0476532 C20.50507192 0.06132885 25.49890897 0.08177557 30.49276376 0.10421848 C33.6108363 0.11806378 36.72891144 0.13070576 39.84699059 0.14296722 C49.5972236 0.1815978 59.34742653 0.22423889 69.09761554 0.27274251 C80.362922 0.32876678 91.628178 0.37178692 102.89357883 0.40342355 C111.59432097 0.42862354 120.29496843 0.46521744 128.99562901 0.51050925 C134.19533948 0.53733136 139.3949642 0.55931862 144.5947361 0.56952667 C149.48591102 0.57945609 154.3768137 0.60350892 159.26787186 0.63846016 C161.06375213 0.64886031 162.85967014 0.65416811 164.65558052 0.65402794 C167.106308 0.65461879 169.55623662 0.67351449 172.00683594 0.69702148 C172.71851482 0.69285603 173.43019371 0.68869057 174.16343862 0.68439889 C178.50441155 0.7506412 181.24547769 1.43746164 184.69389343 4.10247803 C189.11968627 10.66978353 187.05641236 16.67951503 185.69389343 24.10247803 C184.82271354 28.52776424 183.87319703 32.93277848 182.90092468 37.33685303 C182.63393768 38.56248459 182.36695068 39.78811615 182.09187317 41.05088806 C181.38006893 44.31559344 180.66495505 47.57953242 179.94778061 50.84305954 C178.76308569 56.23639219 177.58384292 61.63092183 176.40502357 67.02554131 C176.11352981 68.35930785 175.82185207 69.69303421 175.52998924 71.02672005 C173.76926307 79.07601192 172.04925923 87.13092412 170.42045593 95.20794678 C170.2604863 95.99422455 170.10051666 96.78050232 169.93569946 97.59060669 C169.23232325 101.04901895 168.54103577 104.50879103 167.87480164 107.97454834 C167.52034973 109.72203369 167.52034973 109.72203369 167.15873718 111.50482178 C166.87437805 112.9664978 166.87437805 112.9664978 166.58427429 114.45770264 C165.30680691 118.25227464 163.35009305 121.01762884 159.97566032 123.22796059 C156.91099404 124.40253461 154.30941747 124.36072005 151.0271759 124.36990356 C150.35828901 124.37443468 149.68940212 124.37896579 149.00024593 124.38363421 C146.76020001 124.39628868 144.52039691 124.3946572 142.28031921 124.39300537 C140.67371813 124.39898997 139.06711993 124.40579536 137.46052551 124.4133606 C133.09684695 124.43103465 128.73324682 124.43571656 124.36953592 124.43699217 C120.72640112 124.43889139 117.08328459 124.44624917 113.44015682 124.45333636 C104.84455049 124.4696232 96.24898607 124.47450504 87.65336609 124.4730835 C78.78737524 124.47188191 69.92162777 124.49298637 61.05569851 124.52457082 C53.4428366 124.55072455 45.83005421 124.56145117 38.21714771 124.56017268 C33.67072615 124.55966278 29.12452087 124.56536103 24.57814407 124.58652878 C20.3016943 124.60589606 16.02566744 124.60604614 11.74920273 124.59149551 C10.18108248 124.58940444 8.61293587 124.59412617 7.04486084 124.60621643 C4.90093718 124.62167394 2.75847094 124.61235969 0.61457825 124.59695435 C-0.58408812 124.59804388 -1.78275448 124.59913342 -3.01774406 124.60025597 C-7.02445631 123.99373738 -9.17791841 122.64030964 -12.30610657 120.10247803 C-14.8933183 115.32296368 -16.10134012 110.34891351 -17.18110657 105.05950928 C-17.34695755 104.27772812 -17.51280853 103.49594696 -17.6836853 102.69047546 C-18.23149194 100.10006108 -18.76894463 97.50761891 -19.30610657 94.91497803 C-19.69016325 93.0850936 -20.07486214 91.25534385 -20.4601593 89.42572021 C-21.07675196 86.49550814 -21.69235974 83.5651065 -22.30499268 80.63406372 C-23.95522327 72.74101167 -25.64378956 64.85658291 -27.34126282 56.97357178 C-28.10163352 53.42915263 -28.86119427 49.88456121 -29.62031555 46.33987427 C-30.11784572 44.02114423 -30.61718524 41.70280167 -31.11836243 39.38485718 C-31.82345077 36.12006437 -32.52073584 32.85369416 -33.21626282 29.58685303 C-33.42831863 28.6136058 -33.64037445 27.64035858 -33.8588562 26.63761902 C-34.82870557 22.04654984 -35.5692716 17.82665926 -35.30610657 13.10247803 C-34.64610657 13.10247803 -33.98610657 13.10247803 -33.30610657 13.10247803 C-30.38956793 22.82715829 -28.39846943 32.75396798 -26.31956482 42.68185425 C-25.22607395 47.89811044 -24.11847058 53.11137707 -23.01313782 58.32513428 C-22.55951961 60.46722308 -22.10590633 62.60931292 -21.65229797 64.75140381 C-19.7631666 73.66616283 -17.87276124 82.5805065 -15.94581604 91.48718262 C-15.56353464 93.26066593 -15.18422107 95.03479178 -14.80799866 96.80957031 C-14.28503154 99.27480277 -13.75191262 101.73763111 -13.21626282 104.20013428 C-13.06662582 104.91680771 -12.91698883 105.63348114 -12.76281738 106.37187195 C-11.81645162 110.65728058 -10.75284166 114.43560777 -8.30610657 118.10247803 C-4.02619987 119.9242056 -0.33186492 120.35481937 4.29067993 120.36317444 C5.60141983 120.37025925 6.91215973 120.37734406 8.26261902 120.38464355 C9.70317112 120.38235004 11.1437229 120.37984039 12.58427429 120.37713623 C14.11073048 120.38148637 15.63718448 120.38667053 17.16363525 120.3926239 C21.30000638 120.40599219 25.436286 120.40659503 29.57267451 120.4040606 C33.02941481 120.40298949 36.48613671 120.40787782 39.94287306 120.41266602 C48.09939586 120.42375355 56.2558726 120.42420276 64.41239929 120.41815186 C72.81940152 120.41211094 81.22623644 120.42442778 89.63321012 120.44572192 C96.85886924 120.46334913 104.08447515 120.46933755 111.31015497 120.46608418 C115.62235316 120.46427308 119.93443197 120.46689032 124.24661064 120.48079872 C128.3022535 120.4933908 132.35763583 120.49142002 136.41327477 120.47838783 C137.89873086 120.47602556 139.38420538 120.47874424 140.86964035 120.48701096 C151.31335947 120.87152088 151.31335947 120.87152088 160.69389343 117.10247803 C162.24753612 114.21584164 162.24753612 114.21584164 162.84501648 110.68280029 C162.99329486 110.026839 163.14157324 109.3708777 163.2943449 108.6950388 C163.61563244 107.26034257 163.92367532 105.82263151 164.2200737 104.38258743 C164.70297464 102.05877755 165.22936282 99.74877907 165.76850891 97.43740845 C166.97571559 92.23897829 168.12872664 87.02927721 169.27592468 81.81732178 C169.48312323 80.87873384 169.69032177 79.94014591 169.90379906 78.97311592 C170.9957028 74.02625076 172.08368908 69.07854403 173.16825867 64.13006592 C174.28599786 59.03388787 175.41721353 53.94079773 176.55139637 48.84825802 C177.42606778 44.90962729 178.29090917 40.96888524 179.15306664 37.02749825 C179.56604851 35.14765339 179.98270779 33.26861241 180.403162 31.39042473 C180.98812016 28.77308467 181.55908811 26.15305792 182.12675476 23.53192139 C182.30172989 22.76354446 182.47670502 21.99516754 182.65698242 21.20350647 C183.57869521 16.86633846 183.83217336 13.40744109 182.69389343 9.10247803 C180.77657823 6.57510798 179.77883934 6.13079333 176.69389343 5.10247803 C174.2699678 5.0038002 171.87466009 4.96073016 169.45062256 4.96444702 C168.70767502 4.96162574 167.96472748 4.95880446 167.19926637 4.95589769 C164.70275461 4.94754588 162.20628717 4.94621295 159.70976257 4.94476318 C157.92272822 4.94009548 156.13569505 4.93495198 154.34866333 4.92936707 C150.4968788 4.91808231 146.64510203 4.90965003 142.79330635 4.90324783 C136.70524325 4.89257771 130.61723591 4.87233639 124.52920532 4.85012817 C107.21604459 4.78816781 89.90288723 4.73415694 72.58964539 4.70111084 C63.03045431 4.6827848 53.47135667 4.65387612 43.91223425 4.61310613 C38.85172425 4.5920057 33.79133215 4.57657454 28.73077583 4.57429886 C23.97257934 4.5721566 19.21462847 4.55633055 14.45650673 4.52990913 C12.70857344 4.5226991 10.96061044 4.52062339 9.21266556 4.52401161 C6.8295336 4.52789379 4.44719103 4.51349329 2.06414795 4.49447632 C1.02246565 4.50277086 1.02246565 4.50277086 -0.04026073 4.51123297 C-4.07579928 4.45550111 -6.36341627 3.92309336 -9.30610657 1.10247803 C-6.32006135 -0.39054458 -3.27309903 -0.02167618 0 0 Z " fill="#E7F5F5" transform="translate(53.30610656738281,178.89752197265625)"/>
<path d="M0 0 C1.14270797 0.00166865 1.14270797 0.00166865 2.30850095 0.003371 C4.87490947 0.00843148 7.44123109 0.02078835 10.00761414 0.03314209 C11.84213658 0.03837249 13.6766602 0.04320001 15.51118469 0.0476532 C20.50507192 0.06132885 25.49890897 0.08177557 30.49276376 0.10421848 C33.6108363 0.11806378 36.72891144 0.13070576 39.84699059 0.14296722 C49.5972236 0.1815978 59.34742653 0.22423889 69.09761554 0.27274251 C80.362922 0.32876678 91.628178 0.37178692 102.89357883 0.40342355 C111.59432097 0.42862354 120.29496843 0.46521744 128.99562901 0.51050925 C134.19533948 0.53733136 139.3949642 0.55931862 144.5947361 0.56952667 C149.48591102 0.57945609 154.3768137 0.60350892 159.26787186 0.63846016 C161.06375213 0.64886031 162.85967014 0.65416811 164.65558052 0.65402794 C167.106308 0.65461879 169.55623662 0.67351449 172.00683594 0.69702148 C172.71851482 0.69285603 173.43019371 0.68869057 174.16343862 0.68439889 C178.50441155 0.7506412 181.24547769 1.43746164 184.69389343 4.10247803 C189.11992351 10.67013557 187.05806985 16.67922414 185.69389343 24.10247803 C184.799788 28.63332234 183.82633343 33.14376202 182.83061218 37.65325928 C182.41170078 39.57518968 181.99279042 41.49712031 181.5739336 43.41906261 C180.99228132 46.08321303 180.40698102 48.74655671 179.82170105 51.40991211 C178.81161613 56.00962095 177.80712923 60.61055439 176.80305481 65.21157837 C176.24107663 67.78404163 175.67719306 70.35608942 175.11134338 72.92770386 C173.77122768 79.04117187 172.47092186 85.15746587 171.26664734 91.29925537 C171.04523575 92.4155986 170.82382416 93.53194183 170.59570312 94.68211365 C170.18467634 96.77101293 169.78386188 98.86195671 169.39498901 100.95509338 C169.21365921 101.87280014 169.03232941 102.7905069 168.84550476 103.73602295 C168.61870781 104.93553841 168.61870781 104.93553841 168.3873291 106.1592865 C167.69389343 108.10247803 167.69389343 108.10247803 164.69389343 110.10247803 C163.30581064 105.93822964 164.48087284 102.57010443 165.43217468 98.4118042 C165.7269722 97.07961098 165.7269722 97.07961098 166.02772522 95.72050476 C166.4559246 93.78978825 166.88771806 91.8598662 167.32264709 89.93065453 C168.01063764 86.87660637 168.68828367 83.82043098 169.36308289 80.76344299 C171.28395056 72.07135377 173.22516972 63.38383175 175.16947937 54.69696045 C176.35761509 49.3852157 177.53500544 44.07117655 178.70619202 38.75567055 C179.3729952 35.74585469 180.05250441 32.7390834 180.73222351 29.73216248 C181.14071232 27.88203958 181.54854361 26.03177135 181.95561218 24.18133545 C182.14779327 23.34735229 182.33997437 22.51336914 182.53797913 21.65411377 C183.50958131 17.16403537 183.93153026 13.63880309 182.69389343 9.10247803 C180.77657823 6.57510798 179.77883934 6.13079333 176.69389343 5.10247803 C174.2699678 5.0038002 171.87466009 4.96073016 169.45062256 4.96444702 C168.70767502 4.96162574 167.96472748 4.95880446 167.19926637 4.95589769 C164.70275461 4.94754588 162.20628717 4.94621295 159.70976257 4.94476318 C157.92272822 4.94009548 156.13569505 4.93495198 154.34866333 4.92936707 C150.4968788 4.91808231 146.64510203 4.90965003 142.79330635 4.90324783 C136.70524325 4.89257771 130.61723591 4.87233639 124.52920532 4.85012817 C107.21604459 4.78816781 89.90288723 4.73415694 72.58964539 4.70111084 C63.03045431 4.6827848 53.47135667 4.65387612 43.91223425 4.61310613 C38.85172425 4.5920057 33.79133215 4.57657454 28.73077583 4.57429886 C23.97257934 4.5721566 19.21462847 4.55633055 14.45650673 4.52990913 C12.70857344 4.5226991 10.96061044 4.52062339 9.21266556 4.52401161 C6.8295336 4.52789379 4.44719103 4.51349329 2.06414795 4.49447632 C1.02246565 4.50277086 1.02246565 4.50277086 -0.04026073 4.51123297 C-4.07579928 4.45550111 -6.36341627 3.92309336 -9.30610657 1.10247803 C-6.32006135 -0.39054458 -3.27309903 -0.02167618 0 0 Z " fill="#DFF1F0" transform="translate(53.30610656738281,178.89752197265625)"/>
<path d="M0 0 C2.94881409 10.02649433 -1.60638995 22.45305208 -3.7109375 32.40625 C-4.0835752 34.18076312 -4.45610143 35.95529964 -4.82852173 37.7298584 C-5.6063885 41.42881419 -6.38878476 45.12677983 -7.17382812 48.82421875 C-8.18007355 53.5675527 -9.16989644 58.31415621 -10.15584373 63.06174469 C-10.91788379 66.71798421 -11.69097231 70.37182176 -12.46721268 74.02507019 C-12.83722072 75.77536547 -13.20318439 77.52652072 -13.5650444 79.27851868 C-14.07002465 81.71760449 -14.59036049 84.1529144 -15.11474609 86.58789062 C-15.33465462 87.67562775 -15.33465462 87.67562775 -15.55900574 88.78533936 C-16.6575492 93.77169947 -16.6575492 93.77169947 -20 96 C-21.39237241 91.82288278 -20.22515675 88.40900438 -19.29345703 84.22998047 C-19.00347839 82.88574005 -19.00347839 82.88574005 -18.7076416 81.51434326 C-18.06538749 78.54689519 -17.4118012 75.58206965 -16.7578125 72.6171875 C-16.30979322 70.56133456 -15.86236217 68.50535334 -15.41549683 66.44924927 C-14.47701334 62.13907662 -13.53325488 57.83010477 -12.58544922 53.52197266 C-11.36795674 47.98724941 -10.1606878 42.4503602 -8.95697212 36.91262627 C-8.03353589 32.66734681 -7.10617562 28.42293277 -6.1774559 24.1788063 C-5.73081385 22.13675274 -5.28506725 20.09450312 -4.84021378 18.05205917 C-4.21903378 15.20427031 -3.59293676 12.35760932 -2.96533203 9.51123047 C-2.68784622 8.23329117 -2.68784622 8.23329117 -2.40475464 6.92953491 C-1.11449891 1.11449891 -1.11449891 1.11449891 0 0 Z " fill="#D8E7E4" transform="translate(238,193)"/>
<path d="M0 0 C0.99 0.33 1.98 0.66 3 1 C2.6173991 6.64336328 2.22146091 9.89915226 -2 14 C-4.86580051 15.71358142 -6.95365885 16.24886015 -10.27740479 16.24050903 C-11.12431885 16.24325836 -11.97123291 16.24600769 -12.84381104 16.24884033 C-13.76450378 16.24164978 -14.68519653 16.23445923 -15.63378906 16.22705078 C-16.60973022 16.22734283 -17.58567139 16.22763489 -18.59118652 16.22793579 C-21.81608988 16.22654277 -25.04076202 16.2109827 -28.265625 16.1953125 C-30.5019315 16.19158228 -32.73823963 16.18873535 -34.97454834 16.18673706 C-40.86003126 16.17910137 -46.74541546 16.15945333 -52.63085938 16.1373291 C-58.63670516 16.11686936 -64.64256691 16.10773506 -70.6484375 16.09765625 C-82.43233504 16.07620746 -94.21615931 16.0420722 -106 16 C-105.67 15.01 -105.34 14.02 -105 13 C-103.23806557 12.99120064 -103.23806557 12.99120064 -101.4405365 12.98222351 C-90.36132575 12.92496697 -79.28231073 12.85218978 -68.20329952 12.76428509 C-62.50769915 12.71959121 -56.81217015 12.68033272 -51.11645508 12.65356445 C-45.61796549 12.62752197 -40.11975068 12.58711238 -34.62143135 12.53681374 C-32.5255634 12.52015151 -30.42964794 12.50863323 -28.33372307 12.50238609 C-25.39398385 12.4927382 -22.45494662 12.46467001 -19.51538086 12.43237305 C-18.65222763 12.43380814 -17.7890744 12.43524323 -16.89976501 12.4367218 C-11.54569667 12.35373934 -7.73731214 11.55855823 -3 9 C-1.5527435 6.80544788 -1.5527435 6.80544788 -1.0625 4.3125 C-0.73958984 3.10013672 -0.73958984 3.10013672 -0.41015625 1.86328125 C-0.27480469 1.24839844 -0.13945312 0.63351562 0 0 Z " fill="#EAF8F7" transform="translate(217,287)"/>
<path d="M0 0 C0.66 0 1.32 0 2 0 C4.04931912 7.24310049 5.83505695 14.49594826 7.375 21.86328125 C7.58560059 22.85772751 7.79620117 23.85217377 8.01318359 24.87675476 C8.67846354 28.02137688 9.33934943 31.16690241 10 34.3125 C10.660134 37.43966703 11.32115397 40.56664556 11.98242188 43.693573 C12.40721458 45.70635526 12.8304195 47.71947334 13.25195312 49.73294067 C14.1425051 53.9823465 15.04155253 58.2273688 16.015625 62.45849609 C16.29921875 63.70324707 16.5828125 64.94799805 16.875 66.23046875 C17.11992188 67.26969482 17.36484375 68.3089209 17.6171875 69.37963867 C17.99655898 71.97644612 17.85410358 73.54481785 17 76 C14.32592647 72.06074807 13.13339273 68.25826926 12.16796875 63.65625 C12.01068802 62.94220001 11.85340729 62.22815002 11.69136047 61.49246216 C11.180961 59.16351825 10.68384502 56.8319761 10.1875 54.5 C9.83780791 52.88578173 9.48754192 51.27168768 9.13671875 49.65771484 C8.24967233 45.5631722 7.37502222 41.46609043 6.5043335 37.36804199 C6.0213865 35.10041795 5.53428725 32.83373495 5.04541016 30.56738281 C4.18750617 26.58854995 3.34182817 22.607267 2.5 18.625 C2.24500732 17.43326172 1.99001465 16.24152344 1.72729492 15.01367188 C1.4976001 13.90830078 1.26790527 12.80292969 1.03125 11.6640625 C0.83080078 10.70967285 0.63035156 9.7552832 0.42382812 8.77197266 C-0.02922781 5.80884068 -0.07290544 2.99298932 0 0 Z " fill="#D6E5E4" transform="translate(18,192)"/>
<path d="M0 0 C0.69591275 0.00322913 1.3918255 0.00645826 2.10882652 0.00978523 C4.45199009 0.02189563 6.79503849 0.04126104 9.13815308 0.06056213 C10.81330106 0.07070119 12.48845178 0.08039526 14.16360474 0.0896759 C18.72122986 0.11619432 23.27879143 0.14896614 27.83636713 0.1828258 C32.59562111 0.21713186 37.35490921 0.24573529 42.11419678 0.27493286 C51.13106522 0.33112215 60.14789094 0.3924709 69.16471279 0.4556542 C79.42814219 0.52732303 89.69160584 0.59326918 99.95507646 0.65872467 C121.07197329 0.79352682 142.18881653 0.93554801 163.30563354 1.08229065 C163.30563354 1.41229065 163.30563354 1.74229065 163.30563354 2.08229065 C141.17500962 2.25941135 119.04432659 2.42509573 96.91351509 2.57706642 C86.63841051 2.64789314 76.36335905 2.72249957 66.08834839 2.80592346 C57.13541387 2.87860378 48.18246048 2.94427453 39.22941291 3.00143468 C34.48635019 3.03196375 29.74337246 3.06606593 25.00040054 3.10855484 C20.54032547 3.14839892 16.08028606 3.17890276 11.6200943 3.20210457 C9.97932526 3.21231168 8.33857376 3.22599211 6.69786453 3.24332619 C4.46518439 3.26640557 2.23277839 3.27721678 0 3.28483582 C-1.25179487 3.29405375 -2.50358974 3.30327168 -3.79331779 3.31276894 C-6.69436646 3.08229065 -6.69436646 3.08229065 -8.69436646 1.08229065 C-5.78054913 -0.37461801 -3.25535847 -0.02157454 0 0 Z " fill="#D2E5E3" transform="translate(52.694366455078125,178.91770935058594)"/>
<path d="M0 0 C2 3 2 3 1.8125 6 C0.62953368 10.36787565 0.62953368 10.36787565 -2 12 C-5.61581862 12.53852618 -7.34111489 12.42236225 -10.4375 10.4375 C-12 8 -12 8 -12.0625 4.4375 C-11 1 -11 1 -8.8125 -1.0625 C-5.12079408 -2.29306864 -3.45300514 -1.68813585 0 0 Z " fill="#E4F5F3" transform="translate(134,237)"/>
<path d="M0 0 C1.90234375 0.64111328 1.90234375 0.64111328 4 2 C4.94140625 4.55029297 4.94140625 4.55029297 5.5625 7.7421875 C5.80226563 8.89074219 6.04203125 10.03929687 6.2890625 11.22265625 C6.64097656 13.03056641 6.64097656 13.03056641 7 14.875 C7.46531494 17.25015151 7.94397503 19.62273698 8.4375 21.9921875 C8.64246094 23.04776855 8.84742188 24.10334961 9.05859375 25.19091797 C10.13879091 28.41414113 11.38866706 29.86362508 14 32 C16.1381966 32.7872678 16.1381966 32.7872678 18 33 C18 33.66 18 34.32 18 35 C18.66 35.33 19.32 35.66 20 36 C19.67 36.33 19.34 36.66 19 37 C13.67665474 36.69288393 10.76503677 35.7895647 7 32 C6.0577503 29.42783389 5.41008692 27.21243928 4.875 24.5625 C4.71741211 23.86036377 4.55982422 23.15822754 4.39746094 22.43481445 C4.07530287 20.9943774 3.76083583 19.55219857 3.45410156 18.10839844 C2.77491055 14.95490727 2.00411754 11.82378323 1.25 8.6875 C0.53064924 5.63791192 0 3.13520642 0 0 Z " fill="#DFEEEE" transform="translate(33,266)"/>
<path d="M0 0 C0.73734375 -0.01611328 1.4746875 -0.03222656 2.234375 -0.04882812 C6.80045468 -0.05291959 9.78476492 0.4322741 13.375 3.3125 C16.60311481 8.80029518 16.5345285 12.30403412 15.375 18.3125 C14.715 17.9825 14.055 17.6525 13.375 17.3125 C13.230625 16.405 13.08625 15.4975 12.9375 14.5625 C12.33532305 11.08325539 11.48336991 9.12365988 9.375 6.3125 C6.35343107 4.43491648 3.91749965 4.0274695 0.390625 3.8984375 C-1.01123047 3.84042969 -1.01123047 3.84042969 -2.44140625 3.78125 C-3.40949219 3.7503125 -4.37757813 3.719375 -5.375 3.6875 C-6.85033203 3.62949219 -6.85033203 3.62949219 -8.35546875 3.5703125 C-10.77846037 3.47621574 -13.20144796 3.39057672 -15.625 3.3125 C-15.625 2.9825 -15.625 2.6525 -15.625 2.3125 C-10.29112874 0.54627086 -5.60374976 -0.02475154 0 0 Z " fill="#E2F2F1" transform="translate(224.625,179.6875)"/>
<path d="M0 0 C0.66 0.33 1.32 0.66 2 1 C0.71034824 2.37562854 -0.62689293 3.70766393 -2 5 C-2.66 5 -3.32 5 -4 5 C-4.226875 5.556875 -4.45375 6.11375 -4.6875 6.6875 C-6.37550036 9.66159588 -8.46676517 11.72008865 -11 14 C-11.66 14 -12.32 14 -13 14 C-11.64101764 9.77533744 -9.86283346 7.6105921 -6.5 4.75 C-5.30890625 3.72132813 -5.30890625 3.72132813 -4.09375 2.671875 C-2 1 -2 1 0 0 Z M-14 14 C-13.41796875 15.84765625 -13.41796875 15.84765625 -13 18 C-14.3125 20.4375 -14.3125 20.4375 -16 23 C-16.350625 23.9075 -16.70125 24.815 -17.0625 25.75 C-18 28 -18 28 -20 29 C-19.54979057 23.14727744 -16.96160773 18.91779881 -14 14 Z " fill="#DDF0ED" transform="translate(64,145)"/>
<path d="M0 0 C2.66721032 8.93111334 -0.99161441 19.23383901 -3 28 C-3.33 27.34 -3.66 26.68 -4 26 C-4.66 26 -5.32 26 -6 26 C-5.19368851 21.85293788 -4.37892159 17.70758262 -3.5625 13.5625 C-3.33240234 12.37849609 -3.10230469 11.19449219 -2.86523438 9.97460938 C-2.64287109 8.84990234 -2.42050781 7.72519531 -2.19140625 6.56640625 C-1.98717041 5.52427979 -1.78293457 4.48215332 -1.57250977 3.40844727 C-1 1 -1 1 0 0 Z " fill="#DCECEA" transform="translate(238,193)"/>
<path d="M0 0 C0.69351563 0.48855469 1.38703125 0.97710937 2.1015625 1.48046875 C1.7715625 2.14046875 1.4415625 2.80046875 1.1015625 3.48046875 C0.1115625 3.15046875 -0.8784375 2.82046875 -1.8984375 2.48046875 C-3.52410829 2.33331676 -5.15430607 2.23325008 -6.78515625 2.1640625 C-7.72294922 2.12216797 -8.66074219 2.08027344 -9.62695312 2.03710938 C-10.60341797 1.99779297 -11.57988281 1.95847656 -12.5859375 1.91796875 C-13.57400391 1.87478516 -14.56207031 1.83160156 -15.58007812 1.78710938 C-18.01939296 1.68105221 -20.45880863 1.57899161 -22.8984375 1.48046875 C-22.8984375 1.15046875 -22.8984375 0.82046875 -22.8984375 0.48046875 C-15.91278172 -2.11884503 -6.77579914 -3.55227206 0 0 Z " fill="#EBFAFA" transform="translate(231.8984375,181.51953125)"/>
<path d="M0 0 C0.66 0 1.32 0 2 0 C4.48407886 7.38206487 5.38591277 13.30233993 4 21 C3.67 21 3.34 21 3 21 C2.49265716 18.6263603 1.99397614 16.25142575 1.5 13.875 C1.35691406 13.20984375 1.21382812 12.5446875 1.06640625 11.859375 C0.2387717 7.83943578 -0.15330658 4.10095101 0 0 Z " fill="#DBE9E7" transform="translate(18,192)"/>
<path d="M0 0 C-0.45261358 1.43931117 -0.91232979 2.87638999 -1.375 4.3125 C-1.63023438 5.11300781 -1.88546875 5.91351563 -2.1484375 6.73828125 C-3 9 -3 9 -5 12 C-5.66 12 -6.32 12 -7 12 C-6 0 -6 0 0 0 Z " fill="#E5F3F0" transform="translate(24,182)"/>
<path d="M0 0 C0.66 0 1.32 0 2 0 C0.4898214 3.84409098 -1.55664347 5.7543327 -5 8 C-7.65937401 8.87823483 -10.2458663 9.43983721 -13 10 C-13.33 9.34 -13.66 8.68 -14 8 C-12.98679688 7.63648438 -12.98679688 7.63648438 -11.953125 7.265625 C-7.09258087 5.439409 -3.4526351 4.02807429 0 0 Z " fill="#DDEEED" transform="translate(159,142)"/>
<path d="M0 0 C0.33 0 0.66 0 1 0 C1.72492332 9.35927791 2.14256667 18.60644064 2 28 C-0.46383986 24.3042402 -0.07533051 22.36916956 0 18 C-0.16113281 17.22914062 -0.32226562 16.45828125 -0.48828125 15.6640625 C-1.06867111 12.64249087 -1.13257401 9.82504836 -1.125 6.75 C-1.12757812 5.69296875 -1.13015625 4.6359375 -1.1328125 3.546875 C-1 1 -1 1 0 0 Z " fill="#EEFEFD" transform="translate(82,45)"/>
<path d="M0 0 C0.99 0 1.98 0 3 0 C5.09230769 4.43076923 5.09230769 4.43076923 4.625 7.3125 C4.41875 7.869375 4.2125 8.42625 4 9 C3.01 9 2.02 9 1 9 C1.020625 8.071875 1.04125 7.14375 1.0625 6.1875 C1.15769604 2.97713989 1.15769604 2.97713989 0 0 Z " fill="#DAF0EE" transform="translate(208,164)"/>
<path d="M0 0 C1 2 1 2 0.1875 5.0625 C-1 8 -1 8 -3 9 C-4 6 -4 6 -3.1875 3.375 C-2 1 -2 1 0 0 Z " fill="#DEECE9" transform="translate(221,280)"/>
<path d="M0 0 C0.66 0 1.32 0 2 0 C1.67 0.94875 1.34 1.8975 1 2.875 C-0.10159191 5.77062452 -0.10159191 5.77062452 0 8 C0.66 8 1.32 8 2 8 C1.67 8.66 1.34 9.32 1 10 C0.01 9.34 -0.98 8.68 -2 8 C-1.125 1.125 -1.125 1.125 0 0 Z " fill="#DCEDEA" transform="translate(124,237)"/>
<path d="M0 0 C0.66 0 1.32 0 2 0 C1.67 3.3 1.34 6.6 1 10 C0.67 10 0.34 10 0 10 C-0.19412181 8.52168779 -0.38012131 7.04230684 -0.5625 5.5625 C-0.66691406 4.73878906 -0.77132813 3.91507813 -0.87890625 3.06640625 C-0.91886719 2.38449219 -0.95882813 1.70257813 -1 1 C-0.67 0.67 -0.34 0.34 0 0 Z " fill="#E1EFED" transform="translate(21,203)"/>
<path d="M0 0 C0.33 0 0.66 0 1 0 C1.33 2.64 1.66 5.28 2 8 C1.01 8.495 1.01 8.495 0 9 C-1.125 6.1875 -1.125 6.1875 -2 3 C-1.34 2.01 -0.68 1.02 0 0 Z " fill="#DEF1F0" transform="translate(172,84)"/>
</svg>
